<mxfile host="app.diagrams.net" modified="2022-11-30T05:52:14.302Z" agent="5.0 (Windows NT 10.0; Win64; x64) AppleWebKit/537.36 (KHTML, like Gecko) Chrome/106.0.0.0 Safari/537.36" etag="spYXj7kyIk-AcIFbPDjZ" version="20.5.3" type="github">
  <diagram id="yADQap-89PuntW9U95AL" name="第 1 页">
    <mxGraphModel dx="1886" dy="2418" grid="1" gridSize="10" guides="1" tooltips="1" connect="1" arrows="1" fold="1" page="1" pageScale="1" pageWidth="1200" pageHeight="1600" math="0" shadow="0">
      <root>
        <mxCell id="0" />
        <mxCell id="1" parent="0" />
        <mxCell id="0dREb3E9lP1Kd60AYNcg-1" value="" style="rounded=1;whiteSpace=wrap;html=1;" vertex="1" parent="1">
          <mxGeometry x="170" y="146.25" width="280" height="130" as="geometry" />
        </mxCell>
        <mxCell id="0dREb3E9lP1Kd60AYNcg-2" value="Game1 moduel" style="text;html=1;strokeColor=none;fillColor=none;align=center;verticalAlign=middle;whiteSpace=wrap;rounded=0;" vertex="1" parent="1">
          <mxGeometry x="170" y="200" width="60" height="30" as="geometry" />
        </mxCell>
        <mxCell id="0dREb3E9lP1Kd60AYNcg-3" value="玩法" style="whiteSpace=wrap;html=1;aspect=fixed;" vertex="1" parent="1">
          <mxGeometry x="237" y="182.5" width="57.5" height="57.5" as="geometry" />
        </mxCell>
        <mxCell id="0dREb3E9lP1Kd60AYNcg-4" value="界面" style="whiteSpace=wrap;html=1;aspect=fixed;" vertex="1" parent="1">
          <mxGeometry x="310" y="182.5" width="57.5" height="57.5" as="geometry" />
        </mxCell>
        <mxCell id="0dREb3E9lP1Kd60AYNcg-6" value="" style="rounded=0;whiteSpace=wrap;html=1;" vertex="1" parent="1">
          <mxGeometry x="160" y="520" width="690" height="190" as="geometry" />
        </mxCell>
        <mxCell id="0dREb3E9lP1Kd60AYNcg-7" value="公共库" style="text;html=1;strokeColor=none;fillColor=none;align=center;verticalAlign=middle;whiteSpace=wrap;rounded=0;" vertex="1" parent="1">
          <mxGeometry x="160" y="600" width="60" height="30" as="geometry" />
        </mxCell>
        <mxCell id="0dREb3E9lP1Kd60AYNcg-8" value="网络请求" style="rounded=0;whiteSpace=wrap;html=1;" vertex="1" parent="1">
          <mxGeometry x="240" y="585" width="120" height="60" as="geometry" />
        </mxCell>
        <mxCell id="0dREb3E9lP1Kd60AYNcg-9" value="日志管理" style="rounded=0;whiteSpace=wrap;html=1;" vertex="1" parent="1">
          <mxGeometry x="405" y="585" width="120" height="60" as="geometry" />
        </mxCell>
        <mxCell id="0dREb3E9lP1Kd60AYNcg-10" value="文件管理" style="rounded=0;whiteSpace=wrap;html=1;" vertex="1" parent="1">
          <mxGeometry x="570" y="585" width="120" height="60" as="geometry" />
        </mxCell>
        <mxCell id="0dREb3E9lP1Kd60AYNcg-11" value="逻辑" style="whiteSpace=wrap;html=1;aspect=fixed;" vertex="1" parent="1">
          <mxGeometry x="380" y="182.5" width="57.5" height="57.5" as="geometry" />
        </mxCell>
        <mxCell id="0dREb3E9lP1Kd60AYNcg-12" value="" style="rounded=0;whiteSpace=wrap;html=1;" vertex="1" parent="1">
          <mxGeometry x="10" y="-40" width="120" height="750" as="geometry" />
        </mxCell>
        <mxCell id="0dREb3E9lP1Kd60AYNcg-13" value="接口层" style="text;html=1;strokeColor=none;fillColor=none;align=center;verticalAlign=middle;whiteSpace=wrap;rounded=0;" vertex="1" parent="1">
          <mxGeometry x="40" y="-30" width="60" height="30" as="geometry" />
        </mxCell>
        <mxCell id="0dREb3E9lP1Kd60AYNcg-14" value="" style="rounded=0;whiteSpace=wrap;html=1;" vertex="1" parent="1">
          <mxGeometry x="160" y="300" width="690" height="190" as="geometry" />
        </mxCell>
        <mxCell id="0dREb3E9lP1Kd60AYNcg-15" value="硬件Moduels" style="text;html=1;strokeColor=none;fillColor=none;align=center;verticalAlign=middle;whiteSpace=wrap;rounded=0;" vertex="1" parent="1">
          <mxGeometry x="160" y="380" width="60" height="30" as="geometry" />
        </mxCell>
        <mxCell id="0dREb3E9lP1Kd60AYNcg-16" value="打印" style="rounded=0;whiteSpace=wrap;html=1;" vertex="1" parent="1">
          <mxGeometry x="240" y="365" width="120" height="60" as="geometry" />
        </mxCell>
        <mxCell id="0dREb3E9lP1Kd60AYNcg-17" value="扫描" style="rounded=0;whiteSpace=wrap;html=1;" vertex="1" parent="1">
          <mxGeometry x="405" y="365" width="120" height="60" as="geometry" />
        </mxCell>
        <mxCell id="0dREb3E9lP1Kd60AYNcg-18" value="认证" style="rounded=0;whiteSpace=wrap;html=1;" vertex="1" parent="1">
          <mxGeometry x="570" y="365" width="120" height="60" as="geometry" />
        </mxCell>
        <mxCell id="0dREb3E9lP1Kd60AYNcg-20" value="" style="rounded=1;whiteSpace=wrap;html=1;" vertex="1" parent="1">
          <mxGeometry x="467" y="146.25" width="285" height="130" as="geometry" />
        </mxCell>
        <mxCell id="0dREb3E9lP1Kd60AYNcg-21" value="Game2 moduel" style="text;html=1;strokeColor=none;fillColor=none;align=center;verticalAlign=middle;whiteSpace=wrap;rounded=0;" vertex="1" parent="1">
          <mxGeometry x="467" y="200" width="60" height="30" as="geometry" />
        </mxCell>
        <mxCell id="0dREb3E9lP1Kd60AYNcg-22" value="玩法" style="whiteSpace=wrap;html=1;aspect=fixed;" vertex="1" parent="1">
          <mxGeometry x="535" y="182.5" width="57.5" height="57.5" as="geometry" />
        </mxCell>
        <mxCell id="0dREb3E9lP1Kd60AYNcg-23" value="界面" style="whiteSpace=wrap;html=1;aspect=fixed;" vertex="1" parent="1">
          <mxGeometry x="603.25" y="182.5" width="57.5" height="57.5" as="geometry" />
        </mxCell>
        <mxCell id="0dREb3E9lP1Kd60AYNcg-24" value="逻辑" style="whiteSpace=wrap;html=1;aspect=fixed;" vertex="1" parent="1">
          <mxGeometry x="672" y="182.5" width="57.5" height="57.5" as="geometry" />
        </mxCell>
        <mxCell id="0dREb3E9lP1Kd60AYNcg-26" value="" style="rounded=0;whiteSpace=wrap;html=1;" vertex="1" parent="1">
          <mxGeometry x="170" y="-40" width="680" height="130" as="geometry" />
        </mxCell>
        <mxCell id="0dREb3E9lP1Kd60AYNcg-27" value="模板" style="text;html=1;strokeColor=none;fillColor=none;align=center;verticalAlign=middle;whiteSpace=wrap;rounded=0;" vertex="1" parent="1">
          <mxGeometry x="170" y="10" width="60" height="30" as="geometry" />
        </mxCell>
        <mxCell id="0dREb3E9lP1Kd60AYNcg-28" value="主界面/菜单" style="rounded=0;whiteSpace=wrap;html=1;" vertex="1" parent="1">
          <mxGeometry x="250" y="-5" width="120" height="60" as="geometry" />
        </mxCell>
        <mxCell id="0dREb3E9lP1Kd60AYNcg-29" value="游戏列表" style="rounded=0;whiteSpace=wrap;html=1;" vertex="1" parent="1">
          <mxGeometry x="415" y="-5" width="120" height="60" as="geometry" />
        </mxCell>
        <mxCell id="0dREb3E9lP1Kd60AYNcg-30" value="公告" style="rounded=0;whiteSpace=wrap;html=1;" vertex="1" parent="1">
          <mxGeometry x="580" y="-5" width="120" height="60" as="geometry" />
        </mxCell>
        <mxCell id="0dREb3E9lP1Kd60AYNcg-31" value="" style="rounded=0;whiteSpace=wrap;html=1;" vertex="1" parent="1">
          <mxGeometry x="910" y="-40" width="120" height="750" as="geometry" />
        </mxCell>
        <mxCell id="0dREb3E9lP1Kd60AYNcg-32" value="脚手架" style="text;html=1;strokeColor=none;fillColor=none;align=center;verticalAlign=middle;whiteSpace=wrap;rounded=0;" vertex="1" parent="1">
          <mxGeometry x="935" y="-35" width="60" height="30" as="geometry" />
        </mxCell>
        <mxCell id="0dREb3E9lP1Kd60AYNcg-33" value="出票接口" style="rounded=0;whiteSpace=wrap;html=1;" vertex="1" parent="1">
          <mxGeometry x="30" y="55" width="80" height="50" as="geometry" />
        </mxCell>
        <mxCell id="0dREb3E9lP1Kd60AYNcg-35" value="..." style="rounded=1;whiteSpace=wrap;html=1;fontStyle=1;fontSize=20;" vertex="1" parent="1">
          <mxGeometry x="770" y="146.25" width="80" height="130" as="geometry" />
        </mxCell>
        <mxCell id="0dREb3E9lP1Kd60AYNcg-37" value="1. 模板" style="rounded=0;whiteSpace=wrap;html=1;" vertex="1" parent="1">
          <mxGeometry x="935" y="15" width="70" height="40" as="geometry" />
        </mxCell>
        <mxCell id="0dREb3E9lP1Kd60AYNcg-38" value="2. 游戏" style="rounded=0;whiteSpace=wrap;html=1;" vertex="1" parent="1">
          <mxGeometry x="935" y="90" width="70" height="40" as="geometry" />
        </mxCell>
        <mxCell id="0dREb3E9lP1Kd60AYNcg-39" value="3. 设备" style="rounded=0;whiteSpace=wrap;html=1;" vertex="1" parent="1">
          <mxGeometry x="935" y="160" width="70" height="40" as="geometry" />
        </mxCell>
        <mxCell id="0dREb3E9lP1Kd60AYNcg-40" value="4. 生成" style="rounded=0;whiteSpace=wrap;html=1;" vertex="1" parent="1">
          <mxGeometry x="935" y="236.25" width="70" height="40" as="geometry" />
        </mxCell>
        <mxCell id="0dREb3E9lP1Kd60AYNcg-41" value="扫描接口" style="rounded=0;whiteSpace=wrap;html=1;" vertex="1" parent="1">
          <mxGeometry x="30" y="146.25" width="80" height="50" as="geometry" />
        </mxCell>
        <mxCell id="0dREb3E9lP1Kd60AYNcg-43" value="游戏列表" style="rounded=0;whiteSpace=wrap;html=1;" vertex="1" parent="1">
          <mxGeometry x="30" y="226.25" width="80" height="50" as="geometry" />
        </mxCell>
      </root>
    </mxGraphModel>
  </diagram>
</mxfile>
